<svg width="32" height="32" viewBox="0 0 32 32" fill="none" xmlns="http://www.w3.org/2000/svg">
<path fill-rule="evenodd" clip-rule="evenodd" d="M13.369 20.8606C12.4328 22.481 12.4735 24.3969 13.3084 25.9273C13.4161 26.1249 13.2801 26.3799 13.055 26.3799H6.29264C2.81731 26.3799 0 23.5646 0 20.0917C0 16.6188 2.81731 13.8035 6.29264 13.8035C6.46814 13.8035 6.64196 13.8107 6.81382 13.8248C6.94324 13.8354 7.04458 13.9384 7.06056 14.0673C7.22641 15.4049 7.46126 16.2013 7.65085 16.66C7.70845 16.7993 7.80538 16.7513 7.76447 16.6061C7.59922 16.0198 7.39702 15.0593 7.41126 13.9035C7.41126 13.903 7.4117 13.9026 7.41218 13.9027C7.41265 13.9028 7.41309 13.9024 7.4131 13.902C7.50959 8.96912 11.5413 5 16.5007 5C19.0373 5 21.3312 6.03835 22.98 7.71292C23.1418 7.87721 23.0319 8.15274 22.805 8.19372C21.3589 8.4549 20.0328 9.32672 19.2403 10.6984L13.369 20.8606Z" fill="#056C4E"/>
<ellipse cx="28.3666" cy="22.7467" rx="3.63319" ry="3.63319" fill="#056C4E"/>
<rect x="18.917" y="27.4446" width="5.869" height="17.607" rx="2.9345" transform="rotate(-150 18.917 27.4446)" fill="#056C4E"/>
</svg>
